<svg width="19" height="19" viewBox="0 0 19 19" fill="none" xmlns="http://www.w3.org/2000/svg">
<path fill-rule="evenodd" clip-rule="evenodd" d="M18.3748 17.306L13.9375 12.6029C15.0784 11.2207 15.7035 9.48166 15.7035 7.67124C15.7035 3.44139 12.3266 0 8.17595 0C4.02535 0 0.648438 3.44139 0.648438 7.67124C0.648438 11.9011 4.02535 15.3425 8.17595 15.3425C9.73415 15.3425 11.219 14.8635 12.4886 13.9543L16.9596 18.6931C17.1465 18.8909 17.3978 19 17.6672 19C17.9221 19 18.164 18.9009 18.3476 18.7208C18.7377 18.3383 18.7502 17.7039 18.3748 17.306ZM8.17595 2.00119C11.2439 2.00119 13.7398 4.54471 13.7398 7.67124C13.7398 10.7978 11.2439 13.3413 8.17595 13.3413C5.108 13.3413 2.61214 10.7978 2.61214 7.67124C2.61214 4.54471 5.108 2.00119 8.17595 2.00119Z" fill="#4D4D4D"/>
</svg>
